PERFORMER "Gareth Emery"
TITLE "Essential Mix (2008-01-12) [TMB]"
FILE "2008-01-12 - Essential Mix - Gareth Emery.mp3" MP3
  TRACK 01 AUDIO
    PERFORMER "Ticon"
    TITLE "Prologue (Edit)"
    INDEX 01 00:00:00
  TRACK 02 AUDIO
    PERFORMER "Moonbeam"
    TITLE "Cocoon (Sunset Mix)"
    INDEX 01 02:26:62
  TRACK 03 AUDIO
    PERFORMER "Glenn Morrison"
    TITLE "No Sudden Moves"
    INDEX 01 03:49:73
  TRACK 04 AUDIO
    PERFORMER "Jay Lumen pres. Monologue"
    TITLE "In Love (Fine Taste Remix)"
    INDEX 01 07:21:17
  TRACK 05 AUDIO
    PERFORMER "Jaytech"
    TITLE "Pepe's Garden"
    INDEX 01 09:51:58
  TRACK 06 AUDIO
    PERFORMER "Anthony Attalla"
    TITLE "Obsidian"
    INDEX 01 15:07:10
  TRACK 07 AUDIO
    PERFORMER "Michael Cassette"
    TITLE "Fox And A Shooting Star"
    INDEX 01 18:40:50
  TRACK 08 AUDIO
    PERFORMER "Komytea"
    TITLE "Total Hibernation (Squash 84 Remix)"
    INDEX 01 22:51:54
  TRACK 09 AUDIO
    PERFORMER "Paul van Dyk & Starkillers & Austin Leeds feat. Ashley Tomberlin"
    TITLE "New York City"
    INDEX 01 28:19:26
  TRACK 10 AUDIO
    PERFORMER "Patrick La Funk"
    TITLE "Unisono"
    INDEX 01 34:11:41
  TRACK 11 AUDIO
    PERFORMER "Anton Sonin & AMX feat. Sari"
    TITLE "Undone (Rank 1 Remix)"
    INDEX 01 39:54:51
  TRACK 12 AUDIO
    PERFORMER "Menno de Jong feat. Re:Locate"
    TITLE "Solid State (Gareth Emery Remix)"
    INDEX 01 45:41:20
  TRACK 13 AUDIO
    PERFORMER "Marksun & Brian"
    TITLE "Saturday"
    INDEX 01 51:40:44
  TRACK 14 AUDIO
    PERFORMER "Cerf, Mitiska & Jaren"
    TITLE "Down To You (Pulser Remix)"
    INDEX 01 56:12:61
  TRACK 15 AUDIO
    PERFORMER "Myon"
    TITLE "Albion"
    INDEX 01 62:09:74
  TRACK 16 AUDIO
    PERFORMER "Signalrunners"
    TITLE "Static Erratic"
    INDEX 01 66:54:69
  TRACK 17 AUDIO
    PERFORMER "Gareth Emery"
    TITLE "This Is That"
    INDEX 01 71:53:30
  TRACK 18 AUDIO
    PERFORMER "M6"
    TITLE "Untitled"
    INDEX 01 77:19:32
  TRACK 19 AUDIO
    PERFORMER "Lange"
    TITLE "Out Of The Sky (Gareth Emery's Essential Edit)"
    INDEX 01 83:55:11
  TRACK 20 AUDIO
    PERFORMER "Andy Tau"
    TITLE "Revelations"
    INDEX 01 89:12:16
  TRACK 21 AUDIO
    PERFORMER "Miikka Leinonen"
    TITLE "Galactic Evolution"
    INDEX 01 96:26:07
  TRACK 22 AUDIO
    PERFORMER "Bissen"
    TITLE "Quicksand"
    INDEX 01 102:42:43
  TRACK 23 AUDIO
    PERFORMER "Coast 2 Coast feat. Le Sal & Phoenix"
    TITLE "Cut Me"
    INDEX 01 108:44:11
  TRACK 24 AUDIO
    PERFORMER "DT8 Project"
    TITLE "Breathe (Alex M.O.R.P.H. vs. Woody van Eyden Dub)"
    INDEX 01 115:26:25